<svg width="224" height="64" viewBox="0 0 224 64" fill="none" xmlns="http://www.w3.org/2000/svg">
<g clip-path="url(#clip0_109_269)">
<path d="M54.999 29.8938C55.0328 27.4233 54.8266 25.3814 55.181 23.4419C55.4695 21.8628 56.6269 19.058 57.058 19.1213C59.3154 19.4525 62.1009 19.9514 63.4841 21.4887C65.0956 23.2796 65.4474 26.2039 67.2719 28.5916C67.1829 26.8089 67.092 25.0262 67.0051 23.2434C66.6454 15.8593 66.8368 15.6989 74.482 17.3443C74.482 27.6053 74.5255 37.942 74.4205 48.2772C74.4089 49.4167 73.7995 51.2105 73.0143 51.5089C72.1004 51.8563 70.2552 51.2526 69.5682 50.431C66.9909 47.3487 64.721 44.0092 62.0024 40.3126C62.0024 43.2273 62.3943 45.8632 61.8548 48.2922C61.5331 49.7409 59.7496 50.865 58.6232 52.135C57.4116 50.9477 55.2286 49.8186 55.1534 48.5633C54.7911 42.5164 54.9971 36.4355 54.999 29.8938Z" fill="white"/>
<path d="M119.642 50.348C114.17 53.2294 111.668 51.9564 112.636 46.6813C114.517 36.4319 117 26.2929 119.082 16.802C120.806 16.3027 121.124 16.1138 121.425 16.1377C128.885 16.7303 131.201 21.1145 131.379 28.1768C131.559 35.2895 132.928 42.3722 133.8 49.6693C129.916 50.6013 126.567 51.0598 125.149 45.8788C124.872 44.869 122.333 44.4786 120.228 43.5269C120.075 46.1654 119.963 48.0753 119.642 50.348Z" fill="white"/>
<path d="M217.554 47.6223C214.95 51.6169 210.978 52.1417 207.693 50.9072C204.142 49.5727 201.712 46.6807 200.95 42.088C199.644 34.2125 201.022 27.1589 204.51 20.221C205.963 17.3309 207.238 15.6697 211.183 16.9391C218.749 19.3732 220.834 21.5508 221.719 29.4925C222.438 35.9451 221.612 41.923 217.554 47.6223ZM212.951 27.6242C212.898 26.8101 212.845 25.9961 212.762 24.7175C207.308 30.8397 206.745 39.192 211.043 43.9277C213.829 39.3961 214.353 35.3861 212.951 27.6242Z" fill="white"/>
<path d="M175.076 37.4832C174.253 30.0372 177.633 24.315 180.975 18.6464C182.525 16.0162 188.368 15.6982 191.257 18.2189C193.068 19.7992 195.047 21.8765 195.61 24.0744C197.699 32.2153 197.787 40.4607 192.678 47.6279C190.23 51.063 185.682 52.5496 182.069 50.5092C179.17 48.8721 177.327 45.1669 175.386 42.1411C174.718 41.0985 175.171 39.3366 175.076 37.4832ZM188.446 36.8047C189.066 30.6743 188.475 27.9765 184.846 24.0412C184.194 31.2323 183.635 37.3834 183.077 43.5345C183.795 43.7349 184.513 43.9354 185.231 44.1359C186.232 41.958 187.233 39.7802 188.446 36.8047Z" fill="white"/>
<path d="M48.022 42.5261C46.3547 49.3438 44.1266 51.4328 39.2488 51.152C35.0891 50.9126 29.2474 45.612 29.0502 41.0511C28.7119 33.2238 28.9567 25.3714 28.9567 17.6676C34.9423 17.1117 36.9567 18.5978 36.9939 23.1587C37.0352 28.2256 36.5873 33.2948 36.5128 38.3654C36.4902 39.8987 37.001 41.4399 37.2675 42.9775C37.8264 43.0028 38.3852 43.0281 38.9441 43.0534C39.5765 38.7528 40.4173 34.4693 40.7713 30.146C41.0271 27.0226 40.5964 23.8468 40.547 20.6932C40.5133 18.546 40.1576 15.9849 43.5448 16.2185C46.6259 16.431 49.1395 17.543 48.9889 21.2852C48.7096 28.2223 48.3712 35.157 48.022 42.5261Z" fill="white"/>
<path d="M16.089 29.5758C17.4709 31.5607 18.5007 33.981 20.3067 35.4412C24.2722 38.6474 24.1986 42.3959 22.7893 46.6033C21.2741 51.1269 17.4278 50.9216 13.8233 50.7784C9.21616 50.5954 6.87074 47.2962 5.28504 43.5274C4.91593 42.6502 5.54282 40.6201 6.31546 40.1794C7.31134 39.6113 9.08112 39.7377 10.2144 40.2438C11.5682 40.8485 12.6015 42.171 13.7737 43.1826C14.2938 42.7442 14.8139 42.3059 15.334 41.8675C13.7057 39.8252 12.2182 37.6485 10.422 35.7664C5.59704 30.7109 6.17332 21.8519 11.7355 17.5122C14.6104 15.2692 19.0016 15.938 22.3228 20.6398C23.9892 22.999 23.2511 27.0566 23.6004 30.3461C21.6603 29.9887 19.7202 29.6312 17.3426 28.7955C16.3537 28.3718 15.8023 28.4265 15.251 28.4811C15.5303 28.846 15.8097 29.2109 16.089 29.5758Z" fill="white"/>
<path d="M93.8529 24.3858C91.2511 19.4327 91.7264 18.065 96.771 17.2103C100.067 16.6519 103.519 16.7203 106.872 16.9453C108.216 17.0355 110.601 18.3597 110.565 19.0156C110.472 20.7079 109.667 23.3592 108.475 23.7962C105.518 24.8804 105.435 26.7724 105.461 29.2182C105.531 36.0673 105.485 42.9175 105.485 49.618C97.4207 50.6527 97.0967 50.4901 97.0271 43.5622C96.978 38.6888 97.4379 33.8115 97.4411 28.9358C97.4424 26.8996 97.5332 24.3663 93.8529 24.3858Z" fill="white"/>
<path d="M173.969 20.9889C172.193 22.6109 170.409 23.8292 168.184 25.3477C167.871 31.9265 167.38 39.1332 167.264 46.346C167.222 48.9635 167.297 51.071 163.948 51.1171C160.928 51.1586 159.168 49.7332 159.253 46.6449C159.388 41.7452 159.841 36.8513 159.876 31.9529C159.898 28.9532 160.318 25.7743 156.57 23.9279C155.468 23.3852 155.45 20.6446 154.788 18.4167C159.184 17.5572 163.13 16.7146 167.103 16.0301C170.745 15.4026 173.249 16.6972 173.969 20.9889Z" fill="white"/>
<path d="M138.836 47.7145C138.946 41.7119 138.993 36.1392 139.194 30.572C139.328 26.8466 138.887 23.6585 134.017 23.5384C134.597 19.7684 134.45 16.2512 139.959 17.3677C142.383 17.8591 145.219 16.0766 147.753 16.3573C149.591 16.5609 151.9 18.0804 152.826 19.6885C154.351 22.337 151.754 22.9959 149.826 24.0851C148.596 24.7803 147.328 26.6247 147.281 27.9957C147.03 35.2055 147.163 42.4285 147.163 49.7099C143.651 50.5941 140.568 52.8385 138.836 47.7145Z" fill="white"/>
</g>
<defs>
<clipPath id="clip0_109_269">
<rect width="224" height="64" fill="white"/>
</clipPath>
</defs>
</svg>
